<svg width="95" height="44" viewBox="0 0 95 44" fill="none" xmlns="http://www.w3.org/2000/svg">
<path d="M49.772 26.7976C52.9432 29.9303 56.4215 31.4862 59.6074 33.6631C65.5509 37.7171 72.5278 38.3051 79.4564 39.1052C83.6643 39.5888 87.9234 39.8922 91.9687 41.027C92.5237 41.1805 93.0818 41.3246 93.6157 41.5231C94.0984 41.6952 94.7892 41.8396 94.5964 42.7499C94.3706 43.8254 93.6285 43.572 93.1489 43.6178C88.884 44.0148 84.7214 43.845 80.5709 43.617C75.0239 43.3123 69.3051 43.563 64.234 41.4248C57.7058 38.6744 51.5061 35.108 46.2409 29.5627C45.5921 28.8737 44.9887 28.3126 43.9692 28.5298C37.3942 29.9579 31.2437 29.092 25.1384 28.1268C20.113 27.3351 15.1328 26.3408 10.3966 24.5658C7.33467 23.4089 4.3511 22.0288 1.7292 19.812C1.27362 19.4316 0.833099 19.0042 0.431769 18.5168C0.0606116 18.0596 -0.223154 17.4129 0.244084 16.5577C0.73242 15.6574 1.2332 15.8765 1.69783 16.2288C11.1261 23.3488 22.4768 24.3588 33.7009 25.7628C36.6177 26.1306 39.6099 26.2017 43.0091 25.5434C41.8832 23.2382 40.863 21.2657 39.9213 19.2146C38.735 16.622 37.5246 14.0424 37.0168 10.8055C36.4757 7.34116 37.1925 4.24057 38.9925 2.04777C40.7684 -0.111284 43.3893 -0.786545 45.2299 1.11283C46.9407 2.87855 48.021 4.33282 51.1118 1.61547C54.6278 -1.47454 60.7399 1.80625 62.1862 6.15352C63.2158 9.25468 62.3305 13.769 59.8886 17.6297C57.6215 21.2148 54.9258 23.7153 51.9584 25.4696C51.3613 25.8193 50.7732 26.2028 49.7781 26.8201L49.772 26.7976ZM56.0052 4.51391C55.4834 4.42249 54.8167 4.22369 54.1169 4.21071C51.0282 4.15055 49.9398 5.65776 49.7211 10.061C49.6373 11.8111 50.0875 14.1108 48.1242 14.9718C46.3327 15.7523 46.4827 13.2794 46.2198 11.7614C45.7332 8.9545 45.0808 6.3332 43.358 4.8529C42.6188 4.21821 41.7198 3.72958 40.7098 4.95153C39.7208 6.14913 39.7997 7.53715 40.0233 8.82598C40.0928 9.20926 40.1684 9.59443 40.2771 9.93836C41.8503 15.131 44.1351 19.5142 46.7878 23.4757C47.3099 24.2488 47.9795 24.3762 48.8451 24.0178C51.4417 22.9424 53.9719 21.4331 56.2785 18.8622C58.4494 16.445 60.3759 13.6309 60.3897 9.92759C60.4005 6.19235 58.2376 5.35883 56.0113 4.5158L56.0052 4.51391Z" fill="#F05658"/>
</svg>
