<svg width="543" height="103" viewBox="0 0 543 103" fill="none" xmlns="http://www.w3.org/2000/svg">
<path d="M168.27 93.1694C182.963 90.4214 196.768 87.837 210.598 85.2473C218.452 83.7711 227.28 82.7622 235.737 81.582C246.259 80.1104 258.431 80.944 270.417 81.4407C310.53 83.1107 348.709 82.3898 385.756 80.3066C420.948 78.3297 454.538 75.3504 483.262 69.683C502.494 65.887 518.233 61.0558 526.712 54.2344C534.665 47.8547 529.421 41.4698 513.603 35.0522C493.345 26.8398 467.262 20.9724 438.7 16.1842C399.893 9.67191 359.926 6.45482 319.399 4.79711C259.999 2.36726 203.685 3.48384 150.167 7.61558C95.6226 11.8289 54.6911 21.1471 28.5684 35.7524C21.9863 39.434 18.6817 43.6036 20.2513 48.308C22.8032 55.9715 38.8413 61.343 60.3893 65.6525C71.8897 67.951 84.2183 69.4424 96.7706 70.3618C119.779 72.0517 142.658 74.0839 165.239 76.9554C167.372 77.2289 169.976 77.4011 170.014 78.2869C170.037 79.0712 167.643 78.9865 165.754 78.9537C133.96 78.3332 101.951 77.9409 69.9777 73.5595C39.2743 69.3515 14.8284 62.8449 4.16036 52.754C-3.70237 45.3272 0.354756 38.8373 9.86164 32.9538C21.1719 25.9552 38.0921 20.4364 57.2563 15.5585C91.4587 6.85255 132.79 7.59989 179.526 5.6703C223.583 3.85015 269.949 -1.52333 316.732 0.413131C370.814 2.64837 423.422 7.63862 472.626 18.3704C493.687 22.9596 512.795 28.1932 527.207 34.858C542.967 42.1401 547.08 49.2018 538.402 56.066C530.852 62.0376 518.068 66.665 502.299 70.5176C479.726 76.0466 452.49 79.3118 423.541 81.703C376.109 85.6197 326.202 86.9545 273.347 85.0905C270.519 84.9878 267.672 84.8191 264.827 84.629C253.641 83.8902 244.156 84.398 235.468 85.9773C211.228 90.3916 188.58 95.4268 164.997 100.091C160.745 100.931 156.102 97.2187 151.501 97.9031C147.367 98.5218 142.923 103.151 138.47 101.751C133.923 100.321 134.662 98.9114 137.221 97.7592C148.447 92.6856 159.863 87.6477 171.28 82.6098C172.875 81.9028 175.142 81.2674 178.694 81.9336C182.46 82.6445 181.401 83.5852 180.69 84.4369C178.75 86.7408 174.951 88.6982 171.438 90.7056C170.259 91.3717 168.435 91.9324 168.345 93.1462L168.27 93.1694Z" fill="#F05658"/>
</svg>
