<svg width="92" height="105" viewBox="0 0 92 105" fill="none" xmlns="http://www.w3.org/2000/svg">
<path d="M22.9892 81.2259C22.7267 81.7175 22.3597 82.5383 21.8665 83.2704C21.2056 84.2454 20.2573 84.7146 19.0543 84.3959C17.8888 84.091 17.1661 83.2981 17.0628 82.1142C16.9734 81.1456 16.9331 80.1321 17.093 79.1822C19.6952 64.3141 20.7199 49.2411 22.9663 34.3255C23.3262 31.9569 23.995 29.6184 24.5281 27.2717C24.7218 26.4289 24.7098 25.2576 25.9585 25.3725C27.1218 25.4874 27.0871 26.6413 27.1649 27.5004C27.8051 33.9074 27.9735 40.3187 27.7933 46.7482C27.4916 57.5791 26.2677 68.2793 23.733 78.831C23.564 79.5254 23.3165 80.2012 23.0056 81.2109L22.9892 81.2259Z" fill="#F05658"/>
<path d="M77.3892 54.8713C71.4233 68.1696 63.8778 80.6526 54.9917 92.3664C53.792 93.941 52.4719 95.4395 50.6699 96.3814C49.5494 96.9656 48.3742 97.0777 47.3472 96.2144C46.4033 95.4133 46.3818 94.3227 46.749 93.2496C47.0375 92.4103 47.3401 91.5341 47.8147 90.7951C55.9924 77.9152 63.8309 64.8048 73.7611 53.0986C74.6924 52.0029 75.6915 50.9534 76.693 49.9257C77.131 49.478 77.6674 49.0246 78.3717 49.3902C79.2153 49.8387 79.0029 50.5906 78.7648 51.2699C78.3461 52.45 77.8712 53.6094 77.3892 54.8713Z" fill="#F05658"/>
<path d="M9.54941 79.4935C8.98087 80.7023 8.35291 81.5633 7.08884 81.6004C5.83413 81.6409 5.06454 80.9149 4.62758 79.8493C4.39626 79.2802 4.25276 78.649 4.1783 78.0328C2.65006 64.8329 0.480386 51.69 0.0161212 38.3894C-0.0252312 37.323 0.0223899 36.2474 0.0571155 35.1776C0.0905258 34.3069 -0.136877 33.1402 0.966992 32.9072C2.26869 32.6317 2.53579 33.9183 2.86638 34.7869C3.8523 37.3799 4.95647 39.943 5.62282 42.6176C8.42001 53.9218 10.1356 65.3726 9.83329 77.0442C9.81508 77.9309 9.6295 78.8083 9.54941 79.4935Z" fill="#F05658"/>
<path d="M91.1443 75.2731C90.9463 75.5677 90.6756 76.0248 90.3581 76.4645C83.2687 86.299 74.8939 94.9119 65.118 102.187C63.4633 103.414 61.5637 105.087 59.5871 103.158C57.5462 101.174 59.0213 99.1018 60.4235 97.4445C68.5204 87.9089 77.8393 79.7608 88.8282 73.5336C89.5365 73.1334 90.2883 72.5914 91.0897 73.1506C91.8419 73.6705 91.4773 74.4292 91.1537 75.2765L91.1443 75.2731Z" fill="#F05658"/>
<path d="M42.0721 59.5967C43.7784 55.1296 45.2065 51.5582 47.0302 48.1541C47.4838 47.3022 47.885 46.0841 49.0424 46.2703C50.442 46.4936 49.9974 47.8534 49.9137 48.7159C48.7715 61.3278 46.3584 73.6589 41.1134 85.3212C40.75 86.1329 40.2649 86.8995 39.7494 87.6339C39.0124 88.6963 38.1479 89.7011 36.6279 89.1495C35.2203 88.6395 34.8748 87.4185 34.9003 86.093C34.9703 83.1967 35.9356 80.4738 36.7089 77.722C38.4914 71.3489 39.7918 64.8396 42.0663 59.584L42.0721 59.5967Z" fill="#F05658"/>
<path d="M85.3057 36.103C83.3224 35.338 81.8344 31.0667 82.7852 28.885C83.6071 27.013 86.0058 26.1867 88.0733 27.0669C90.3806 28.0463 91.4378 30.8443 90.4504 33.4014C89.6026 35.6212 87.2386 36.8598 85.2928 36.1087L85.3057 36.103Z" fill="#F05658"/>
<path d="M29.3464 5.03469C28.3531 7.74724 25.8906 9.32782 23.7845 8.4649C21.7907 7.64352 21.2312 6.05962 21.9115 4.08274C22.8334 1.41736 25.6227 -0.515409 27.557 0.126273C29.435 0.747185 30.1709 2.76425 29.3464 5.03469Z" fill="#F05658"/>
</svg>
