<svg width="80" height="80" viewBox="0 0 80 80" fill="none" xmlns="http://www.w3.org/2000/svg">
<path fill-rule="evenodd" clip-rule="evenodd" d="M28.9997 24.9974C24.9496 24.9974 21.6663 28.2806 21.6663 32.3307V47.6641C21.6663 51.7142 24.9496 54.9974 28.9997 54.9974H50.9997C55.0498 54.9974 58.333 51.7142 58.333 47.6641V32.3307C58.333 28.2806 55.0498 24.9974 50.9997 24.9974H28.9997ZM28.333 32.3307C28.333 31.9625 28.6315 31.6641 28.9997 31.6641H50.9997C51.3679 31.6641 51.6663 31.9625 51.6663 32.3307V47.6641C51.6663 48.0323 51.3679 48.3307 50.9997 48.3307H28.9997C28.6315 48.3307 28.333 48.0323 28.333 47.6641V32.3307Z" fill="#73A8E6" fill-opacity="0.67"/>
<path fill-rule="evenodd" clip-rule="evenodd" d="M54.9997 6.66406C56.8406 6.66406 58.333 8.15645 58.333 9.9974V13.4339C63.1998 14.0408 67.252 17.2706 69.0305 21.6641H73.333C75.174 21.6641 76.6663 23.1564 76.6663 24.9974C76.6663 26.8383 75.174 28.3307 73.333 28.3307H69.9997V31.6641H73.333C75.174 31.6641 76.6663 33.1564 76.6663 34.9974C76.6663 36.8383 75.174 38.3307 73.333 38.3307H69.9997V41.6641H73.333C75.174 41.6641 76.6663 43.1564 76.6663 44.9974C76.6663 46.8383 75.174 48.3307 73.333 48.3307H69.9997V51.6641H73.333C75.174 51.6641 76.6663 53.1564 76.6663 54.9974C76.6663 56.8383 75.174 58.3307 73.333 58.3307H69.0305C67.4594 62.212 64.1138 65.1851 59.9997 66.244V69.9974C59.9997 71.8383 58.5073 73.3307 56.6663 73.3307C54.8254 73.3307 53.333 71.8383 53.333 69.9974V66.6641H49.9997V69.9974C49.9997 71.8383 48.5073 73.3307 46.6663 73.3307C44.8254 73.3307 43.333 71.8383 43.333 69.9974V66.6641H39.9997V69.9974C39.9997 71.8383 38.5073 73.3307 36.6663 73.3307C34.8254 73.3307 33.333 71.8383 33.333 69.9974V66.6641H29.9997V69.9974C29.9997 71.8383 28.5073 73.3307 26.6663 73.3307C24.8254 73.3307 23.333 71.8383 23.333 69.9974V66.6641C17.7374 66.6641 12.9468 63.2171 10.9689 58.3307H6.66634C4.82539 58.3307 3.33301 56.8383 3.33301 54.9974C3.33301 53.1564 4.82539 51.6641 6.66634 51.6641H9.99967V48.3307H6.66634C4.82539 48.3307 3.33301 46.8383 3.33301 44.9974C3.33301 43.1564 4.82539 41.6641 6.66634 41.6641H9.99967V38.3307H6.66634C4.82539 38.3307 3.33301 36.8383 3.33301 34.9974C3.33301 33.1564 4.82539 31.6641 6.66634 31.6641H9.99967V28.3307H6.66634C4.82539 28.3307 3.33301 26.8383 3.33301 24.9974C3.33301 23.1564 4.82539 21.6641 6.66634 21.6641H10.9689C12.7473 17.2706 16.7995 14.0408 21.6663 13.4339V9.9974C21.6663 8.15645 23.1587 6.66406 24.9997 6.66406C26.8406 6.66406 28.333 8.15645 28.333 9.9974V13.3307H31.6663V9.9974C31.6663 8.15645 33.1587 6.66406 34.9997 6.66406C36.8406 6.66406 38.333 8.15645 38.333 9.9974V13.3307H41.6663V9.9974C41.6663 8.15645 43.1587 6.66406 44.9997 6.66406C46.8406 6.66406 48.333 8.15645 48.333 9.9974V13.3307H51.6663V9.9974C51.6663 8.15645 53.1587 6.66406 54.9997 6.66406ZM63.333 53.3307C63.333 57.0126 60.3482 59.9974 56.6663 59.9974H23.333C19.6511 59.9974 16.6663 57.0126 16.6663 53.3307V26.6641C16.6663 22.9822 19.6511 19.9974 23.333 19.9974H56.6663C60.3482 19.9974 63.333 22.9822 63.333 26.6641V53.3307Z" fill="#73A8E6" fill-opacity="0.67"/>
</svg>
