<svg width="80" height="80" viewBox="0 0 80 80" fill="none" xmlns="http://www.w3.org/2000/svg">
<path fill-rule="evenodd" clip-rule="evenodd" d="M39.9979 20.0012C28.9522 20.0012 19.9979 28.9555 19.9979 40.0012C19.9979 51.0469 28.9522 60.0012 39.9979 60.0012C51.0436 60.0012 59.9979 51.0469 59.9979 40.0012C59.9979 28.9555 51.0436 20.0012 39.9979 20.0012ZM26.6646 40.0012C26.6646 32.6374 32.6341 26.6679 39.9979 26.6679C47.3617 26.6679 53.3313 32.6374 53.3313 40.0012C53.3313 47.365 47.3617 53.3346 39.9979 53.3346C32.6341 53.3346 26.6646 47.365 26.6646 40.0012Z" fill="#D293DB" fill-opacity="0.73"/>
<path fill-rule="evenodd" clip-rule="evenodd" d="M48.3373 6.76424C43.6876 2.26609 36.3083 2.26609 31.6586 6.76424C30.4776 7.90675 28.8354 8.44032 27.2084 8.21019C20.8027 7.30414 14.8328 11.6416 13.715 18.0137C13.4311 19.6322 12.4162 21.0291 10.9647 21.7992C5.24983 24.8314 2.96951 31.8495 5.81067 37.6617C6.53231 39.1379 6.53231 40.8646 5.81067 42.3408C2.96951 48.153 5.24983 55.1711 10.9647 58.2032C12.4162 58.9734 13.4311 60.3703 13.715 61.9888C14.8328 68.3609 20.8027 72.6983 27.2084 71.7923C28.8354 71.5622 30.4776 72.0957 31.6586 73.2382C36.3083 77.7364 43.6876 77.7364 48.3373 73.2382C49.5183 72.0957 51.1605 71.5622 52.7875 71.7923C59.1931 72.6983 65.1631 68.3609 66.2808 61.9888C66.5647 60.3703 67.5797 58.9734 69.0312 58.2032C74.746 55.1711 77.0264 48.153 74.1852 42.3408C73.4636 40.8646 73.4636 39.1379 74.1852 37.6617C77.0264 31.8495 74.746 24.8314 69.0312 21.7992C67.5797 21.0291 66.5647 19.6322 66.2808 18.0137C65.1631 11.6416 59.1931 7.30414 52.7875 8.21019C51.1605 8.44032 49.5183 7.90675 48.3373 6.76424ZM36.2939 11.5557C38.3591 9.55781 41.6367 9.55781 43.702 11.5557C46.3609 14.128 50.0581 15.3293 53.7211 14.8112C56.5663 14.4087 59.218 16.3353 59.7144 19.1655C60.3536 22.8094 62.6386 25.9544 65.9066 27.6883C68.4449 29.0351 69.4578 32.1523 68.1958 34.7339C66.5711 38.0575 66.5711 41.945 68.1958 45.2686C69.4578 47.8502 68.4449 50.9674 65.9066 52.3142C62.6386 54.0481 60.3536 57.1931 59.7144 60.8369C59.218 63.6672 56.5663 65.5938 53.7211 65.1913C50.0581 64.6732 46.3609 65.8745 43.702 68.4467C41.6367 70.4447 38.3591 70.4447 36.2939 68.4467C33.6349 65.8745 29.9378 64.6732 26.2747 65.1913C23.4296 65.5938 20.7779 63.6672 20.2814 60.8369C19.6423 57.1931 17.3573 54.0481 14.0893 52.3142C11.5509 50.9674 10.5381 47.8502 11.8 45.2686C13.4247 41.945 13.4247 38.0575 11.8 34.7339C10.5381 32.1523 11.5509 29.0351 14.0893 27.6883C17.3573 25.9544 19.6423 22.8094 20.2814 19.1655C20.7779 16.3353 23.4296 14.4087 26.2747 14.8112C29.9378 15.3293 33.6349 14.128 36.2939 11.5557Z" fill="#D293DB" fill-opacity="0.73"/>
</svg>
