<svg width="80" height="80" viewBox="0 0 80 80" fill="none" xmlns="http://www.w3.org/2000/svg">
<path d="M48.987 37.3577C50.2887 36.0559 50.2888 33.9454 48.987 32.6436C47.6853 31.3419 45.5747 31.3419 44.273 32.6436L37.8105 39.1061L36.8709 38.1664C35.5691 36.8647 33.4586 36.8647 32.1568 38.1664C30.8551 39.4682 30.8551 41.5787 32.1568 42.8805L35.4535 46.1771C36.7552 47.4789 38.8658 47.4789 40.1675 46.1771L48.987 37.3577Z" fill="#B1F0AA" fill-opacity="0.52"/>
<path fill-rule="evenodd" clip-rule="evenodd" d="M44.9588 6.72985C41.7759 5.45463 38.2241 5.45463 35.0412 6.72985L22.9526 11.5731C22.915 11.5882 22.8777 11.6039 22.8407 11.6204L17.6822 13.9086C13.1582 15.9155 9.99957 20.3342 10 25.4797C10.0006 32.0371 10.4733 43.1361 13.5562 50.7515C15.606 55.8151 19.2979 60.2038 23.0501 63.7111C26.8292 67.2435 30.8554 70.0529 33.8169 71.9229C37.6119 74.3192 42.3881 74.3192 46.1831 71.9229C49.1446 70.0529 53.1707 67.2435 56.9499 63.7111C60.7021 60.2038 64.394 55.8151 66.4438 50.7515C69.5267 43.1361 69.9994 32.0371 70 25.4797C70.0004 20.3342 66.8418 15.9155 62.3178 13.9086L57.1593 11.6204C57.1223 11.6039 57.085 11.5882 57.0474 11.5731L44.9588 6.72985ZM37.5206 12.9183C39.112 12.2807 40.888 12.2807 42.4794 12.9183L54.5116 17.739L59.6145 20.0026C61.9105 21.0211 63.3335 23.1636 63.3333 25.4791C63.3328 32.0818 62.8051 41.9735 60.2643 48.2499C58.7244 52.0539 55.7958 55.6643 52.3975 58.8408C49.0262 61.992 45.3719 64.5506 42.6238 66.2859C41.003 67.3093 38.997 67.3093 37.3762 66.2859C34.6281 64.5506 30.9738 61.992 27.6025 58.8408C24.2042 55.6643 21.2756 52.0539 19.7357 48.2499C17.1949 41.9735 16.6672 32.0818 16.6667 25.4791C16.6665 23.1636 18.0895 21.0211 20.3855 20.0026L25.4884 17.739L37.5206 12.9183Z" fill="#B1F0AA" fill-opacity="0.52"/>
</svg>
