<svg width="271" height="291" viewBox="0 0 271 291" fill="none" xmlns="http://www.w3.org/2000/svg">
<path d="M133.73 219.43L120.331 289M157.736 237.87L166.39 272.795M157.736 63.2458L176.16 -27M133.73 35.5853L127.868 -2.13352M213.007 173.129L266.323 200.989M65.6184 173.129L5.32324 211.048M39.3789 159.08H10.9061M79.0174 89.5093L27.3756 46.2025M218.869 103.359L259.903 82.5044M141.621 173.129L184.79 211.048L171.915 151.895L224.172 137.107L171.915 122.319L184.79 82.5044L145.787 103.359L107.919 51.7904L112.463 113.218L39.3789 126.111L101.349 151.895L89.364 208.014L141.621 173.129Z" stroke="#460050" stroke-opacity="0.11" stroke-width="20"/>
</svg>
